<?xml version="1.0" encoding="utf-8"?>
<!-- Generator: Adobe Illustrator 25.3.0, SVG Export Plug-In . SVG Version: 6.00 Build 0)  -->
<svg version="1.1" id="Layer_1" xmlns="http://www.w3.org/2000/svg" xmlns:xlink="http://www.w3.org/1999/xlink" x="0px" y="0px"
	 viewBox="0 0 595 554.6" style="enable-background:new 0 0 595 554.6;" xml:space="preserve">
<style type="text/css">
	.st0{fill:none;stroke:#000000;stroke-width:17;stroke-linecap:round;stroke-linejoin:round;stroke-miterlimit:4.2942;}
	.st1{fill:#93B5C6;stroke:#000000;stroke-miterlimit:10;}
	.st2{stroke:#000000;stroke-width:19;stroke-miterlimit:10;}
</style>
<g id="surface1">
	<path class="st0" d="M125.7,84.1H61.3 M469.3,341.7l42.9-171.8L469.3,341.7z M168.7,341.7l-42.9-171.8h386.5l-42.9,171.8H168.7z
		 M426.3,449.1c0,11.9-9.6,21.5-21.5,21.5c-11.9,0-21.5-9.6-21.5-21.5c0-11.9,9.6-21.5,21.5-21.5
		C416.7,427.6,426.3,437.2,426.3,449.1z M254.6,449.1c0,11.9-9.6,21.5-21.5,21.5c-11.9,0-21.5-9.6-21.5-21.5
		c0-11.9,9.6-21.5,21.5-21.5C244.9,427.6,254.6,437.2,254.6,449.1z M426.3,449.1c0,11.9-9.6,21.5-21.5,21.5
		c-11.9,0-21.5-9.6-21.5-21.5c0-11.9,9.6-21.5,21.5-21.5C416.7,427.6,426.3,437.2,426.3,449.1z M254.6,449.1
		c0,11.9-9.6,21.5-21.5,21.5c-11.9,0-21.5-9.6-21.5-21.5c0-11.9,9.6-21.5,21.5-21.5C244.9,427.6,254.6,437.2,254.6,449.1z"/>
	<path class="st1" d="M426.3,449.1c0,11.9-9.6,21.5-21.5,21.5c-11.9,0-21.5-9.6-21.5-21.5c0-11.9,9.6-21.5,21.5-21.5
		C416.7,427.6,426.3,437.2,426.3,449.1z"/>
	<path class="st1" d="M254.6,449.1c0,11.9-9.6,21.5-21.5,21.5c-11.9,0-21.5-9.6-21.5-21.5c0-11.9,9.6-21.5,21.5-21.5
		C244.9,427.6,254.6,437.2,254.6,449.1z"/>
	<path class="st2" d="M426.3,449.1c0,11.9-9.6,21.5-21.5,21.5c-11.9,0-21.5-9.6-21.5-21.5c0-11.9,9.6-21.5,21.5-21.5
		C416.7,427.6,426.3,437.2,426.3,449.1z"/>
	<path class="st2" d="M254.6,449.1c0,11.9-9.6,21.5-21.5,21.5c-11.9,0-21.5-9.6-21.5-21.5c0-11.9,9.6-21.5,21.5-21.5
		C244.9,427.6,254.6,437.2,254.6,449.1z"/>
</g>
</svg>
