<?xml version="1.0" encoding="utf-8"?>
<!-- Generator: Adobe Illustrator 25.3.0, SVG Export Plug-In . SVG Version: 6.00 Build 0)  -->
<svg version="1.1" id="Layer_1" xmlns="http://www.w3.org/2000/svg" xmlns:xlink="http://www.w3.org/1999/xlink" x="0px" y="0px"
	 viewBox="0 0 595 524.2" style="enable-background:new 0 0 595 524.2;" xml:space="preserve">
<style type="text/css">
	.st0{fill:none;stroke:#000000;stroke-width:19.7358;stroke-miterlimit:19.7358;}
</style>
<g>
	<g>
		<path class="st0" d="M480.2,278.5v185.2c0,5.4-4.4,9.9-9.9,9.9H129.4c-5.4,0-9.9-4.4-9.9-9.9V278.5"/>
	</g>
</g>
<g>
	<path class="st0" d="M302.9,471.8V252.2"/>
</g>
<g id="surface1">
	<path class="st0" d="M98.9,171.3c-12.3,0.2-22.1,11.1-21.9,24.3l-0.8,53.1c0.2,13.2,10.4,23.8,22.8,23.6l403.3-1.6
		c12.3-0.2,22.1-11.1,21.9-24.3l0.8-53.1c-0.2-13.2-10.4-23.8-22.8-23.6L98.9,171.3z"/>
	<g>
		<g>
			<path class="st0" d="M98.9,171.3c-12.3,0.2-22.1,11.1-21.9,24.3l-0.8,53.1c0.2,13.2,10.4,23.8,22.7,23.6l403.3-1.6
				c12.3-0.2,22.1-11.1,21.9-24.3l0.8-53.1c-0.2-13.2-10.4-23.8-22.8-23.6L98.9,171.3z"/>
		</g>
	</g>
</g>
<g>
	<g>
		<path class="st0" d="M303.2,278.7V127c0,0-14.8-92.5-96.2-91.3c-85.1,1.3-75.2,111-23.4,133.2"/>
	</g>
</g>
<g>
	<g>
		<path class="st0" d="M302.6,127c0,0,14.8-92.5,96.2-91.3c85.1,1.3,75.2,111,23.4,133.2"/>
	</g>
</g>
</svg>
