<svg xmlns="http://www.w3.org/2000/svg" width="26" height="26"><g transform="translate(1.217 0.827)"><path d="M 14.283 11.2 L 22.283 11.2 L 22.283 0.2 L 14.283 0.2 Z" fill="transparent" stroke-width="0.8" stroke="#92B2C4" stroke-miterlimit="10" stroke-dasharray=""></path><path d="M 0.124 13.473 L 0.124 17.863 L 2.839 17.863 L 0.1 24.473 L 10.1 24.473 L 10.1 20.083 L 7.437 20.083 L 10.1 13.473 Z" fill="transparent" stroke-width="0.8" stroke="#92B2C4" stroke-miterlimit="10" stroke-dasharray=""></path><path d="M 0 0 L 0 5.5 L 0 11 L 10 11 L 6.168 5.5 L 10 0 Z" fill="transparent" stroke-width="0.8" stroke="#92B2C4" stroke-miterlimit="10" stroke-dasharray=""></path><path d="M 23.852 18.799 C 23.852 21.851 21.378 24.325 18.326 24.325 C 15.274 24.325 12.8 21.851 12.8 18.799 C 12.8 15.747 15.274 13.273 18.326 13.273 C 21.378 13.273 23.852 15.747 23.852 18.799" fill="transparent" stroke-width="0.8" stroke="#92B2C4" stroke-miterlimit="10" stroke-dasharray=""></path></g></svg>